<?xml version="1.0" encoding="UTF-8" standalone="no"?>
<!-- Created with Inkscape (http://www.inkscape.org/) -->

<svg
   xmlns:dc="http://purl.org/dc/elements/1.1/"
   xmlns:cc="http://creativecommons.org/ns#"
   xmlns:rdf="http://www.w3.org/1999/02/22-rdf-syntax-ns#"
   xmlns:svg="http://www.w3.org/2000/svg"
   xmlns="http://www.w3.org/2000/svg"
   xmlns:sodipodi="http://sodipodi.sourceforge.net/DTD/sodipodi-0.dtd"
   xmlns:inkscape="http://www.inkscape.org/namespaces/inkscape"
   width="37mm"
   height="26mm"
   viewBox="0 0 37 26"
   version="1.1"
   id="svg5"
   sodipodi:docname="ID.svg"
   inkscape:version="0.92.1 r15371">
  <metadata
     id="metadata9">
    <rdf:RDF>
      <cc:Work
         rdf:about="">
        <dc:format>image/svg+xml</dc:format>
        <dc:type
           rdf:resource="http://purl.org/dc/dcmitype/StillImage" />
        <dc:title></dc:title>
      </cc:Work>
    </rdf:RDF>
  </metadata>
  <sodipodi:namedview
     id="namedview7"
     pagecolor="#ffffff"
     bordercolor="#111111"
     borderopacity="1"
     inkscape:pageshadow="0"
     inkscape:pageopacity="0"
     inkscape:pagecheckerboard="1"
     inkscape:document-units="mm"
     showgrid="false"
     inkscape:zoom="1.8973437"
     inkscape:cx="43.547665"
     inkscape:cy="84.855475"
     inkscape:window-width="813"
     inkscape:window-height="600"
     inkscape:window-x="516"
     inkscape:window-y="287"
     inkscape:window-maximized="0"
     inkscape:current-layer="layer1" />
  <defs
     id="defs2" />
  <g
     inkscape:label="Layer 1"
     inkscape:groupmode="layer"
     id="layer1"
     transform="translate(0,-11)">
    <path
       id="rect1472"
       style="fill:#808080;stroke-width:0.25723001"
       d="M 2.99982,11.00019 C 1.33782,11.00019 0,12.33801 0,14.00001 v 5.60017 C 0,21.26218 1.33782,22.6 2.99982,22.6 h 11.600321 c 1.662,0 2.99982,-1.33782 2.99982,-2.99982 v -5.60017 c 0,-1.662 -1.33782,-2.99982 -2.99982,-2.99982 z m -0.33487,2.59984 h 3.6700602 c 0.47914,0 0.86507,0.38541 0.86507,0.86455 v 4.67051 c 0,0.47914 -0.38593,0.86507 -0.86507,0.86507 H 2.66495 c -0.47913,0 -0.86506,-0.38593 -0.86506,-0.86507 v -4.67051 c 0,-0.47914 0.38593,-0.86455 0.86506,-0.86455 z"
       inkscape:connector-curvature="0"
       inkscape:export-xdpi="300"
       inkscape:export-ydpi="300" />
    <text
       xml:space="preserve"
       style="font-weight:bold;font-size:4.23332977px;line-height:1.25;font-family:'MicrogrammaEF Extend';-inkscape-font-specification:'MicrogrammaEF Extend Bold';fill:#ffffff;fill-opacity:1;stroke-width:0.26458299"
       x="9.3244419"
       y="19.998573"
       id="text8642"
       inkscape:export-xdpi="300"
       inkscape:export-ydpi="300"><tspan
         sodipodi:role="line"
         id="tspan8640"
         style="fill:#ffffff;fill-opacity:1;stroke-width:0.26458299"
         x="9.3244419"
         y="19.998573">ID</tspan></text>
    <path
       id="rect1472-8"
       style="fill:#808080;stroke-width:0.25723001"
       d="M 20.99982,11.00019 C 19.33782,11.00019 18,12.33801 18,14.00001 v 5.60017 c 0,1.662 1.33782,2.99982 2.99982,2.99982 h 11.600321 c 1.662,0 2.99982,-1.33782 2.99982,-2.99982 v -5.60017 c 0,-1.662 -1.33782,-2.99982 -2.99982,-2.99982 z m -0.33487,2.59984 h 3.67006 c 0.47914,0 0.86507,0.38541 0.86507,0.86455 v 4.67051 c 0,0.47914 -0.38593,0.86507 -0.86507,0.86507 h -3.67006 c -0.47913,0 -0.86506,-0.38593 -0.86506,-0.86507 v -4.67051 c 0,-0.47914 0.38593,-0.86455 0.86506,-0.86455 z"
       inkscape:connector-curvature="0"
       inkscape:export-xdpi="300"
       inkscape:export-ydpi="300" />
    <text
       xml:space="preserve"
       style="font-weight:bold;font-size:4.23332977px;line-height:1.25;font-family:'MicrogrammaEF Extend';-inkscape-font-specification:'MicrogrammaEF Extend Bold';fill:#ffffff;fill-opacity:1;stroke-width:0.26458299"
       x="27.324442"
       y="19.998575"
       id="text8642-8"
       inkscape:export-xdpi="300"
       inkscape:export-ydpi="300"><tspan
         sodipodi:role="line"
         id="tspan8640-3"
         style="fill:#ffffff;fill-opacity:1;stroke-width:0.26458299"
         x="27.324442"
         y="19.998575">ID</tspan></text>
  </g>
</svg>
