<?xml version="1.0" encoding="UTF-8" standalone="no"?>
<!-- Created with Inkscape (http://www.inkscape.org/) -->

<svg
   xmlns:dc="http://purl.org/dc/elements/1.1/"
   xmlns:cc="http://creativecommons.org/ns#"
   xmlns:rdf="http://www.w3.org/1999/02/22-rdf-syntax-ns#"
   xmlns:svg="http://www.w3.org/2000/svg"
   xmlns="http://www.w3.org/2000/svg"
   xmlns:sodipodi="http://sodipodi.sourceforge.net/DTD/sodipodi-0.dtd"
   xmlns:inkscape="http://www.inkscape.org/namespaces/inkscape"
   sodipodi:docname="tricBody2.svg"
   inkscape:version="0.92.1 r15371"
   id="svg8"
   version="1.1"
   viewBox="0 0 210 297"
   height="297mm"
   width="210mm">
  <defs
     id="defs2" />
  <sodipodi:namedview
     inkscape:snap-text-baseline="true"
     inkscape:pagecheckerboard="1"
     inkscape:window-maximized="1"
     inkscape:window-y="-8"
     inkscape:window-x="-8"
     inkscape:window-height="987"
     inkscape:window-width="1680"
     showgrid="false"
     inkscape:current-layer="layer1"
     inkscape:document-units="mm"
     inkscape:cy="936.38923"
     inkscape:cx="146.88263"
     inkscape:zoom="2.1381562"
     inkscape:pageshadow="2"
     inkscape:pageopacity="0.0"
     borderopacity="1.0"
     bordercolor="#666666"
     pagecolor="#ffffff"
     id="base" />
  <metadata
     id="metadata5">
    <rdf:RDF>
      <cc:Work
         rdf:about="">
        <dc:format>image/svg+xml</dc:format>
        <dc:type
           rdf:resource="http://purl.org/dc/dcmitype/StillImage" />
        <dc:title></dc:title>
      </cc:Work>
    </rdf:RDF>
  </metadata>
  <g
     inkscape:groupmode="layer"
     id="layer3"
     inkscape:label="Layer 3"
     style="display:inline" />
  <g
     inkscape:groupmode="layer"
     id="layer2"
     inkscape:label="Layer 2"
     style="display:inline">
    <path
       style="fill:#808080;stroke-width:0.25723"
       id="rect1472"
       width="17.6"
       height="11.6"
       x="24.4"
       y="140"
       ry="3"
       sodipodi:type="rect"
       d="M 27.4,140 H 39 c 1.662,0 3,1.338 3,3 v 5.6 c 0,1.662 -1.338,3 -3,3 H 27.4 c -1.662,0 -3,-1.338 -3,-3 V 143 c 0,-1.662 1.338,-3 3,-3 z" />
  </g>
  <g
     inkscape:label="Layer 1"
     inkscape:groupmode="layer"
     id="layer1"
     style="display:inline">
    <text
       xml:space="preserve"
       style="font-style:normal;font-variant:normal;font-weight:bold;font-stretch:normal;font-size:3.52778006px;line-height:1.25;font-family:'MicrogrammaEF Extend';-inkscape-font-specification:'MicrogrammaEF Extend, Bold';font-variant-ligatures:normal;font-variant-caps:normal;font-variant-numeric:normal;font-feature-settings:normal;text-align:start;letter-spacing:0px;word-spacing:0px;writing-mode:lr-tb;text-anchor:start;fill:#000000;fill-opacity:1;stroke:none;stroke-width:0.26458299"
       x="91.092255"
       y="71.915176"
       id="text4898" />
    <text
       xml:space="preserve"
       style="font-style:normal;font-variant:normal;font-weight:bold;font-stretch:normal;font-size:3.52778006px;line-height:1.25;font-family:'MicrogrammaEF Extend';-inkscape-font-specification:'MicrogrammaEF Extend, Bold';font-variant-ligatures:normal;font-variant-caps:normal;font-variant-numeric:normal;font-feature-settings:normal;text-align:start;letter-spacing:0px;word-spacing:0px;writing-mode:lr-tb;text-anchor:start;fill:#000000;fill-opacity:1;stroke:none;stroke-width:0.26458299"
       x="91.659218"
       y="71.537201"
       id="text4902" />
    <text
       xml:space="preserve"
       style="font-style:normal;font-variant:normal;font-weight:bold;font-stretch:normal;font-size:3.52778006px;line-height:1.25;font-family:'MicrogrammaEF Extend';-inkscape-font-specification:'MicrogrammaEF Extend, Bold';font-variant-ligatures:normal;font-variant-caps:normal;font-variant-numeric:normal;font-feature-settings:normal;text-align:start;letter-spacing:0px;word-spacing:0px;writing-mode:lr-tb;text-anchor:start;fill:#000000;fill-opacity:1;stroke:none;stroke-width:0.26458299"
       x="92.415176"
       y="70.592255"
       id="text4906" />
    <text
       xml:space="preserve"
       style="font-style:normal;font-variant:normal;font-weight:bold;font-stretch:normal;font-size:2.11666989px;line-height:2.64582992px;font-family:'MicrogrammaEF Extend';-inkscape-font-specification:'MicrogrammaEF Extend, Bold';font-variant-ligatures:normal;font-variant-caps:normal;font-variant-numeric:normal;font-feature-settings:normal;text-align:start;letter-spacing:0px;word-spacing:0px;writing-mode:lr-tb;text-anchor:start;fill:#ffffff;fill-opacity:1;stroke:none;stroke-width:0.26458299"
       x="37.630424"
       y="33.181206"
       id="text4972"><tspan
         sodipodi:role="line"
         id="tspan4970"
         x="37.630424"
         y="35.079834"
         style="font-size:2.11666989px;fill:#ffffff;fill-opacity:1;stroke-width:0.26458299" /></text>
    <path
       style="fill:#808080;stroke-width:0.270123"
       id="rect1346"
       width="71.400002"
       height="14.6"
       x="20"
       y="120"
       ry="3"
       sodipodi:type="rect"
       d="m 23,120 h 65.400002 c 1.662,0 3,1.338 3,3 v 8.6 c 0,1.662 -1.338,3 -3,3 H 23 c -1.662,0 -3,-1.338 -3,-3 V 123 c 0,-1.662 1.338,-3 3,-3 z" />
    <path
       style="fill:#e9ddaf;fill-opacity:1;stroke-width:0.421147"
       id="rect76670-7"
       width="44.458"
       height="8.5"
       x="22.6"
       y="123.5"
       ry="0.83606559"
       sodipodi:type="rect"
       d="m 23.436066,123.5 h 42.785869 c 0.46318,0 0.836066,0.37289 0.836066,0.83607 v 6.82786 c 0,0.46318 -0.372886,0.83607 -0.836066,0.83607 H 23.436066 C 22.972886,132 22.6,131.62711 22.6,131.16393 v -6.82786 c 0,-0.46318 0.372886,-0.83607 0.836066,-0.83607 z" />
    <path
       style="fill:#e9ddaf;fill-opacity:1;stroke-width:0.188654"
       id="rect76670-7-4"
       width="8.9209995"
       height="8.5"
       x="69.657997"
       y="123.5"
       ry="0.83606559"
       sodipodi:type="rect"
       d="m 70.494063,123.5 h 7.248868 c 0.46318,0 0.836066,0.37289 0.836066,0.83607 v 6.82786 c 0,0.46318 -0.372886,0.83607 -0.836066,0.83607 h -7.248868 c -0.463181,0 -0.836066,-0.37289 -0.836066,-0.83607 v -6.82786 c 0,-0.46318 0.372885,-0.83607 0.836066,-0.83607 z" />
    <path
       style="fill:#e9ddaf;fill-opacity:1;stroke-width:0.188654"
       id="rect76670-7-4-0"
       width="8.9209995"
       height="8.5"
       x="80.079002"
       y="123.5"
       ry="0.83606559"
       sodipodi:type="rect"
       d="m 80.915068,123.5 h 7.248868 c 0.463181,0 0.836066,0.37289 0.836066,0.83607 v 6.82786 c 0,0.46318 -0.372885,0.83607 -0.836066,0.83607 h -7.248868 c -0.46318,0 -0.836066,-0.37289 -0.836066,-0.83607 v -6.82786 c 0,-0.46318 0.372886,-0.83607 0.836066,-0.83607 z" />
    <path
       style="fill:#808080;stroke-width:0.332339"
       id="rect1346-7"
       width="71.400002"
       height="22.1"
       x="20"
       y="92"
       ry="3"
       sodipodi:type="rect"
       d="m 23,92 h 65.400002 c 1.662,0 3,1.338 3,3 v 16.1 c 0,1.662 -1.338,3 -3,3 H 23 c -1.662,0 -3,-1.338 -3,-3 V 95 c 0,-1.662 1.338,-3 3,-3 z" />
    <path
       style="fill:#808080;stroke-width:0.259229"
       id="rect1474"
       width="39.599998"
       height="11.6"
       x="48"
       y="140"
       ry="3"
       sodipodi:type="rect"
       d="m 51,140 h 33.599998 c 1.662,0 3,1.338 3,3 v 5.6 c 0,1.662 -1.338,3 -3,3 H 51 c -1.662,0 -3,-1.338 -3,-3 V 143 c 0,-1.662 1.338,-3 3,-3 z" />
    <path
       style="fill:#e9ddaf;fill-opacity:1;stroke-width:0.305038"
       id="rect76670"
       width="13"
       height="15.25"
       x="22.6"
       y="95.5"
       ry="1.5"
       sodipodi:type="rect"
       d="m 24.1,95.5 h 10 c 0.831,0 1.5,0.669 1.5,1.5 v 12.25 c 0,0.831 -0.669,1.5 -1.5,1.5 h -10 c -0.831,0 -1.5,-0.669 -1.5,-1.5 V 97 c 0,-0.831 0.669,-1.5 1.5,-1.5 z" />
    <path
       style="fill:#e9ddaf;fill-opacity:1;stroke-width:0.454481"
       id="rect76670-2"
       width="28.858"
       height="15.25"
       x="38.200001"
       y="95.5"
       ry="1.5"
       sodipodi:type="rect"
       d="m 39.700001,95.5 h 25.858 c 0.831,0 1.5,0.669 1.5,1.5 v 12.25 c 0,0.831 -0.669,1.5 -1.5,1.5 h -25.858 c -0.831,0 -1.5,-0.669 -1.5,-1.5 V 97 c 0,-0.831 0.669,-1.5 1.5,-1.5 z" />
    <path
       style="fill:#000000;fill-opacity:1;stroke-width:0.238621"
       id="rect29971"
       width="8.5799999"
       height="0.5"
       x="24.809999"
       y="102.875"
       sodipodi:type="rect"
       d="m 24.809999,102.875 h 8.58 v 0.5 h -8.58 z" />
    <path
       style="fill:#000000;fill-opacity:1;stroke-width:0.356752"
       id="rect29971-8"
       width="19.177999"
       height="0.5"
       x="42.793999"
       y="102.875"
       sodipodi:type="rect"
       d="m 42.793999,102.875 h 19.177999 v 0.5 H 42.793999 Z" />
    <path
       style="fill:#000000;fill-opacity:1;stroke-width:0.309359"
       id="rect29971-8-7"
       width="14.421"
       height="0.5"
       x="48.858002"
       y="127.5"
       sodipodi:type="rect"
       d="M 48.858002,127.5 H 63.279001 V 128 H 48.858002 Z" />
    <path
       style="fill:#000000;fill-opacity:1;stroke-width:0.192951"
       id="rect29971-8-7-2"
       width="0.5"
       height="5.6100001"
       x="44.828999"
       y="124.945"
       sodipodi:type="rect"
       d="m 44.828999,124.945 h 0.5 v 5.61 h -0.5 z" />
    <path
       style="fill:#ffffff;fill-opacity:1;stroke-width:0.0855565"
       id="rect29971-8-7-2-2"
       width="0.5"
       height="1.103"
       x="22.6"
       y="121.75"
       sodipodi:type="rect"
       d="m 22.6,121.75 h 0.5 v 1.103 h -0.5 z" />
    <path
       style="fill:#ffffff;fill-opacity:1;stroke-width:0.0855565"
       id="rect29971-8-7-2-2-9"
       width="0.5"
       height="1.103"
       x="66.557999"
       y="121.75"
       sodipodi:type="rect"
       d="m 66.557999,121.75 h 0.5 v 1.103 h -0.5 z" />
    <path
       style="fill:#ffffff;fill-opacity:1;stroke-width:0.0855565"
       id="rect29971-8-7-2-2-9-1"
       width="0.5"
       height="1.103"
       x="70.041885"
       y="121.75"
       sodipodi:type="rect"
       d="m 70.041885,121.75 h 0.5 v 1.103 h -0.5 z" />
    <path
       style="fill:#ffffff;fill-opacity:1;stroke-width:0.0855565"
       id="rect29971-8-7-2-2-9-1-8"
       width="0.5"
       height="1.103"
       x="88.079002"
       y="121.75"
       sodipodi:type="rect"
       d="m 88.079002,121.75 h 0.5 v 1.103 h -0.5 z" />
    <path
       style="fill:#000000;fill-opacity:1;stroke-width:0.309359"
       id="rect29971-8-7-4"
       width="14.421"
       height="0.5"
       x="26.379"
       y="127.5"
       sodipodi:type="rect"
       d="M 26.379,127.5 H 40.799999 V 128 H 26.379 Z" />
    <path
       style="fill:#ffffff;fill-opacity:1;stroke-width:0.262018"
       id="rect29971-8-7-4-6"
       width="10.345"
       height="0.5"
       x="22.6"
       y="121.5"
       sodipodi:type="rect"
       d="M 22.6,121.5 H 32.945001 V 122 H 22.6 Z" />
    <path
       style="fill:#ffffff;fill-opacity:1;stroke-width:0.256772"
       id="rect29971-8-7-4-6-7"
       width="9.9350004"
       height="0.5"
       x="57.123001"
       y="121.5"
       sodipodi:type="rect"
       d="m 57.123001,121.5 h 9.935001 v 0.5 h -9.935001 z" />
    <path
       style="fill:#ffffff;fill-opacity:1;stroke-width:0.0814635"
       id="rect29971-8-7-4-6-7-0"
       width="1"
       height="0.5"
       x="70.042"
       y="121.5"
       sodipodi:type="rect"
       d="m 70.042,121.5 h 1 v 0.5 h -1 z" />
    <path
       style="fill:#ffffff;fill-opacity:1;stroke-width:0.0814635"
       id="rect29971-8-7-4-6-7-0-5"
       width="1"
       height="0.5"
       x="87.579002"
       y="121.5"
       sodipodi:type="rect"
       d="m 87.579002,121.5 h 1 v 0.5 h -1 z" />
    <g
       id="g6176">
      <path
         transform="scale(0.26458333)"
         id="rect6232-9"
         d="M 207.87695 284.2207 C 203.6881 284.2207 200.31445 287.5924 200.31445 291.78125 L 200.31445 309.91992 C 200.31445 314.10877 203.6881 317.48047 207.87695 317.48047 L 337.88867 317.48047 C 342.07752 317.48047 345.44922 314.10877 345.44922 309.91992 L 345.44922 291.78125 C 345.44922 287.5924 342.07752 284.2207 337.88867 284.2207 L 207.87695 284.2207 z M 317.48047 288 L 336.37891 288 L 336.37891 292.91406 L 317.48047 292.91406 L 317.48047 288 z M 317.48047 298.88477 L 336.37891 298.88477 L 336.37891 303.79883 L 317.48047 303.79883 L 317.48047 298.88477 z M 218.26758 302.74023 L 245.85742 302.74023 L 245.85742 314.45703 L 218.26758 314.45703 L 218.26758 302.74023 z M 266.83398 302.74023 L 294.42578 302.74023 L 294.42578 314.45703 L 266.83398 314.45703 L 266.83398 302.74023 z M 317.48047 309.76953 L 336.37891 309.76953 L 336.37891 314.68359 L 317.48047 314.68359 L 317.48047 309.76953 z "
         style="display:inline;opacity:1;fill:#808080;fill-opacity:1;stroke:#808080;stroke-width:0;stroke-miterlimit:4;stroke-dasharray:none;stroke-opacity:1" />
      <path
         transform="scale(0.26458333)"
         id="rect5141"
         d="M 83.908203 284.2207 C 79.719355 284.2207 76.345703 287.5924 76.345703 291.78125 L 76.345703 309.91992 C 76.345703 314.10877 79.719355 317.48047 83.908203 317.48047 L 212.4082 317.48047 C 214.88907 317.48047 217.0762 316.2917 218.45312 314.45703 L 218.26758 314.45703 L 218.26758 302.74023 L 219.96875 302.74023 L 219.96875 291.78125 C 219.96875 287.5924 216.59705 284.2207 212.4082 284.2207 L 130.77148 284.2207 L 130.77148 315.96875 L 99.023438 315.96875 L 99.023438 284.2207 L 83.908203 284.2207 z M 169.70117 302.74023 L 197.29102 302.74023 L 197.29102 314.45703 L 169.70117 314.45703 L 169.70117 302.74023 z "
         style="display:inline;fill:#808080;fill-opacity:1;stroke:#808080;stroke-width:0;stroke-miterlimit:4;stroke-dasharray:none;stroke-opacity:1" />
      <path
         transform="scale(0.26458333)"
         id="rect5143"
         d="M 94.21875 120.94531 C 84.317983 120.94531 76.345703 128.91548 76.345703 138.81641 L 76.345703 299.60938 C 76.345703 309.51025 84.317983 317.48047 94.21875 317.48047 L 135.57617 317.48047 C 145.47694 317.48047 153.44727 309.51025 153.44727 299.60938 L 153.44727 138.81641 C 153.44727 128.91548 145.47694 120.94531 135.57617 120.94531 L 130.77148 120.94531 L 130.77148 129.63867 L 130.20508 129.63867 L 100.1582 129.63867 L 99.212891 129.63867 L 99.212891 120.94531 L 94.21875 120.94531 z M 99.023438 153.44922 L 130.39453 153.44922 L 130.39453 167.43359 L 99.023438 167.43359 L 99.023438 153.44922 z M 99.023438 183.68555 L 130.39453 183.68555 L 130.39453 197.66992 L 99.023438 197.66992 L 99.023438 183.68555 z M 99.023438 214.10938 L 130.39453 214.10938 L 130.39453 228.09375 L 99.023438 228.09375 L 99.023438 214.10938 z M 99.023438 244.1582 L 130.39453 244.1582 L 130.39453 258.14258 L 99.023438 258.14258 L 99.023438 244.1582 z M 99.023438 275.52734 L 130.77148 275.52734 L 130.77148 315.96875 L 99.023438 315.96875 L 99.023438 275.52734 z "
         style="display:inline;fill:#808080;fill-opacity:1;stroke:#808080;stroke-width:0;stroke-miterlimit:4;stroke-dasharray:none;stroke-opacity:1" />
      <path
         transform="scale(0.26458333)"
         id="rect7288"
         d="M 84.279297 109.98438 C 79.882195 109.98437 76.34375 113.52477 76.34375 117.92188 L 76.34375 132.2832 C 76.34375 136.68031 79.882195 140.2207 84.279297 140.2207 L 337.69727 140.2207 C 342.09437 140.2207 345.63477 136.68031 345.63477 132.2832 L 345.63477 117.92188 C 345.63477 113.52477 342.09437 109.98437 337.69727 109.98438 L 84.279297 109.98438 z M 99.212891 113.38672 L 130.20508 113.38672 L 130.20508 126.61328 L 130.20508 129.63867 L 99.212891 129.63867 L 99.212891 126.61328 L 99.212891 116.41016 L 99.212891 113.38672 z "
         style="display:inline;opacity:1;fill:#808080;fill-opacity:1;stroke:#808080;stroke-width:0;stroke-miterlimit:4;stroke-dasharray:none;stroke-opacity:1" />
      <path
         transform="scale(0.26458333)"
         id="rect7290"
         d="M 93.351562 79.558594 C 83.929201 79.558594 76.34375 87.144043 76.34375 96.566406 L 76.34375 111.875 C 76.34375 121.29736 83.929201 128.88281 93.351562 128.88281 L 99.212891 128.88281 L 99.212891 126.61328 L 99.212891 116.41016 L 99.212891 113.38672 L 130.20508 113.38672 L 130.20508 116.41016 L 130.20508 126.61328 L 130.20508 128.88281 L 328.62695 128.88281 C 338.04932 128.88281 345.63477 121.29736 345.63477 111.875 L 345.63477 96.566406 C 345.63477 87.144043 338.04932 79.558594 328.62695 79.558594 L 93.351562 79.558594 z "
         style="display:inline;opacity:1;fill:#808080;fill-opacity:1;stroke:#808080;stroke-width:0;stroke-miterlimit:4;stroke-dasharray:none;stroke-opacity:1" />
      <path
         transform="scale(0.26458333)"
         id="rect7292"
         d="M 76.345703 109.98438 L 76.345703 121.32227 L 99.212891 121.32227 L 99.212891 116.41016 L 99.212891 113.38672 L 130.20508 113.38672 L 130.20508 116.41016 L 130.20508 121.32227 L 345.63867 121.32227 L 345.63867 109.98438 L 76.345703 109.98438 z "
         style="display:inline;opacity:1;fill:#808080;fill-opacity:1;stroke:#808080;stroke-width:0;stroke-linecap:square;stroke-miterlimit:4;stroke-dasharray:none;stroke-opacity:1;paint-order:markers stroke fill" />
      <rect
         style="display:inline;opacity:1;fill:#808080;fill-opacity:1;stroke:#808080;stroke-width:0;stroke-linecap:square;stroke-miterlimit:4;stroke-dasharray:none;stroke-opacity:1;paint-order:markers stroke fill"
         id="rect7301"
         width="2.999999"
         height="2.999999"
         x="20.200001"
         y="34" />
      <path
         id="path7277"
         transform="scale(0.26458333)"
         d="M 99.474609 88.441406 C 95.455755 88.441406 92.220703 91.117659 92.220703 94.441406 L 92.220703 123.63867 C 92.220703 126.88935 95.317236 129.51285 99.212891 129.62695 L 99.212891 129.63867 L 130.20508 129.63867 L 130.20508 129.62695 C 134.10041 129.51256 137.19727 126.88916 137.19727 123.63867 L 137.19727 94.441406 C 137.19727 91.117659 133.96222 88.441406 129.94336 88.441406 L 99.474609 88.441406 z M 99.212891 113.38672 L 130.20508 113.38672 L 130.20508 126.61328 L 99.212891 126.61328 L 99.212891 113.38672 z "
         style="fill:#e9ddaf;stroke-width:0.97143322" />
      <path
         sodipodi:type="star"
         style="fill:#000000;fill-opacity:1"
         id="path11779-2-3"
         inkscape:flatsided="false"
         sodipodi:sides="3"
         sodipodi:cx="41.416252"
         sodipodi:cy="249.25514"
         sodipodi:r1="5.5443478"
         sodipodi:r2="11.088696"
         sodipodi:arg1="0.52479577"
         sodipodi:arg2="1.5719933"
         inkscape:rounded="0"
         inkscape:randomized="0"
         transform="matrix(0.0780999,0,0,-0.09011972,33.114877,98.962107)"
         inkscape:transform-center-x="0.00051840554"
         inkscape:transform-center-y="0.2310463"
         d="m 46.214476,252.03306 -4.811497,8.31077 -4.791588,-8.32226 -4.791588,-8.32227 9.603086,0.0115 9.603085,0.0115 z" />
      <path
         inkscape:connector-curvature="0"
         id="rect2439"
         d="M 40.5,36.999831 V 38.4199 c 0,-0.7756 0.624316,-1.399913 1.399916,-1.399913 0.03383,0 0.06704,0.0023 0.10025,0.0046 v -0.0248 z m 0,1.420069 V 38.5 h 0.0041 C 40.5026,38.47326 40.5,38.44703 40.5,38.4199 Z"
         style="fill:#808080;stroke-width:0.26458299" />
      <path
         id="rect2439-4"
         transform="scale(0.26458333)"
         d="M 153.07031 278.92969 L 153.07031 284.59766 L 158.74023 284.59766 L 158.74023 284.20117 C 158.6147 284.21 158.48919 284.2207 158.36133 284.2207 C 155.42993 284.2207 153.07031 281.86109 153.07031 278.92969 z "
         style="fill:#808080;stroke-width:0.99999869" />
      <text
         xml:space="preserve"
         style="font-style:normal;font-variant:normal;font-weight:bold;font-stretch:normal;font-size:2.82222009px;line-height:1.25;font-family:'MicrogrammaEF Extend';-inkscape-font-specification:'MicrogrammaEF Extend, Bold';font-variant-ligatures:normal;font-variant-caps:normal;font-variant-numeric:normal;font-feature-settings:normal;text-align:start;letter-spacing:0px;word-spacing:0px;writing-mode:lr-tb;text-anchor:start;fill:#000000;fill-opacity:1;stroke:none;stroke-width:0.26458299"
         x="25.915926"
         y="28.10742"
         id="text344"><tspan
           sodipodi:role="line"
           id="tspan342"
           x="25.915926"
           y="28.10742"
           style="font-style:normal;font-variant:normal;font-weight:bold;font-stretch:normal;font-size:2.82222009px;font-family:'MicrogrammaEF Extend';-inkscape-font-specification:'MicrogrammaEF Extend, Bold';font-variant-ligatures:normal;font-variant-caps:normal;font-variant-numeric:normal;font-feature-settings:normal;text-align:start;writing-mode:lr-tb;text-anchor:start;stroke-width:0.26458299">PWR</tspan></text>
      <path
         d="m 48.317,23.575 h 6.3 c 0.831,0 1.5,0.669 1.5,1.5 v 7.3 c 0,0.831 -0.669,1.5 -1.5,1.5 h -6.3 c -0.831,0 -1.5,-0.669 -1.5,-1.5 v -7.3 c 0,-0.831 0.669,-1.5 1.5,-1.5 z"
         style="fill:#e9ddaf;stroke-width:0.257025"
         id="path7286"
         inkscape:connector-curvature="0" />
      <text
         xml:space="preserve"
         style="font-style:normal;font-variant:normal;font-weight:bold;font-stretch:normal;font-size:2.82245994px;line-height:1.25;font-family:'MicrogrammaEF Extend';-inkscape-font-specification:'MicrogrammaEF Extend, Bold';font-variant-ligatures:normal;font-variant-caps:normal;font-variant-numeric:normal;text-align:start;letter-spacing:0px;word-spacing:0px;writing-mode:lr-tb;text-anchor:start;fill:#000000;fill-opacity:1;stroke:none;stroke-width:0.26460499"
         x="49.741772"
         y="26.634663"
         id="text344-6"
         transform="scale(1.0000841,0.9999159)"><tspan
           sodipodi:role="line"
           id="tspan74524"
           x="49.741772"
           y="26.634663"
           style="stroke-width:0.26460499">F</tspan></text>
      <text
         xml:space="preserve"
         style="font-style:normal;font-variant:normal;font-weight:bold;font-stretch:normal;font-size:2.82245994px;line-height:1.25;font-family:'MicrogrammaEF Extend';-inkscape-font-specification:'MicrogrammaEF Extend, Bold';font-variant-ligatures:normal;font-variant-caps:normal;font-variant-numeric:normal;text-align:start;letter-spacing:0px;word-spacing:0px;writing-mode:lr-tb;text-anchor:start;fill:#000000;fill-opacity:1;stroke:none;stroke-width:0.26460499"
         x="49.741806"
         y="32.30312"
         id="text344-6-3"
         transform="scale(1.0000834,0.99991661)"><tspan
           sodipodi:role="line"
           id="tspan74524-8"
           x="49.741806"
           y="32.30312"
           style="stroke-width:0.26460499">F</tspan></text>
      <text
         xml:space="preserve"
         style="font-style:normal;font-variant:normal;font-weight:bold;font-stretch:normal;font-size:1.76389003px;line-height:1.25;font-family:'MicrogrammaEF Extend';-inkscape-font-specification:'MicrogrammaEF Extend, Bold';font-variant-ligatures:normal;font-variant-caps:normal;font-variant-numeric:normal;text-align:start;letter-spacing:0px;word-spacing:0px;writing-mode:lr-tb;text-anchor:start;fill:#000000;fill-opacity:1;stroke:none;stroke-width:0.26455301"
         x="51.917057"
         y="33.046646"
         id="text344-6-3-5"
         transform="scale(0.99988581,1.0001142)"><tspan
           sodipodi:role="line"
           id="tspan74598"
           x="51.917057"
           y="33.046646"
           style="font-style:normal;font-variant:normal;font-weight:bold;font-stretch:normal;font-size:1.76389003px;font-family:'MicrogrammaEF Extend';-inkscape-font-specification:'MicrogrammaEF Extend, Bold';font-variant-ligatures:normal;font-variant-caps:normal;font-variant-numeric:normal;stroke-width:0.26455301">2</tspan></text>
      <text
         xml:space="preserve"
         style="font-style:normal;font-variant:normal;font-weight:bold;font-stretch:normal;font-size:1.76389003px;line-height:1.25;font-family:'MicrogrammaEF Extend';-inkscape-font-specification:'MicrogrammaEF Extend, Bold';font-variant-ligatures:normal;font-variant-caps:normal;font-variant-numeric:normal;text-align:start;letter-spacing:0px;word-spacing:0px;writing-mode:lr-tb;text-anchor:start;fill:#000000;fill-opacity:1;stroke:none;stroke-width:0.26455301"
         x="52.24609"
         y="27.438"
         id="text344-6-3-5-1"
         transform="scale(0.99988581,1.0001142)"><tspan
           sodipodi:role="line"
           id="tspan74663"
           x="52.24609"
           y="27.438">1</tspan></text>
      <path
         inkscape:connector-curvature="0"
         id="path7275"
         style="fill:#e9ddaf;stroke-width:0.257025"
         d="m 70.4,23.575 h 6.3 c 0.831,0 1.5,0.669 1.5,1.5 v 7.3 c 0,0.831 -0.669,1.5 -1.5,1.5 h -6.3 c -0.831,0 -1.5,-0.669 -1.5,-1.5 v -7.3 c 0,-0.831 0.669,-1.5 1.5,-1.5 z" />
      <text
         xml:space="preserve"
         style="font-style:normal;font-variant:normal;font-weight:bold;font-stretch:normal;font-size:3.88158989px;line-height:1.25;font-family:'MicrogrammaEF Extend';-inkscape-font-specification:'MicrogrammaEF Extend, Bold';font-variant-ligatures:normal;font-variant-caps:normal;font-variant-numeric:normal;font-feature-settings:normal;text-align:start;letter-spacing:0px;word-spacing:0px;writing-mode:lr-tb;text-anchor:start;fill:#000000;fill-opacity:1;stroke:none;stroke-width:0.26465401"
         x="72.768166"
         y="30.202379"
         id="text4894"
         transform="scale(1.0002666,0.99973348)"><tspan
           sodipodi:role="line"
           id="tspan4892"
           x="72.768166"
           y="30.202379"
           style="font-style:normal;font-variant:normal;font-weight:bold;font-stretch:normal;font-size:3.88158989px;font-family:'MicrogrammaEF Extend';-inkscape-font-specification:'MicrogrammaEF Extend, Bold';font-variant-ligatures:normal;font-variant-caps:normal;font-variant-numeric:normal;font-feature-settings:normal;text-align:start;writing-mode:lr-tb;text-anchor:start;stroke-width:0.26465401">I</tspan></text>
      <path
         d="m 81.2,23.575 h 6.3 c 0.831,0 1.5,0.669 1.5,1.5 v 7.3 c 0,0.831 -0.669,1.5 -1.5,1.5 h -6.3 c -0.831,0 -1.5,-0.669 -1.5,-1.5 v -7.3 c 0,-0.831 0.669,-1.5 1.5,-1.5 z"
         style="fill:#e9ddaf;stroke-width:0.257025"
         id="path4868"
         inkscape:connector-curvature="0" />
      <text
         xml:space="preserve"
         style="font-style:normal;font-variant:normal;font-weight:bold;font-stretch:normal;font-size:3.88031006px;line-height:1.25;font-family:'MicrogrammaEF Extend';-inkscape-font-specification:'MicrogrammaEF Extend, Bold';font-variant-ligatures:normal;font-variant-caps:normal;font-variant-numeric:normal;font-feature-settings:normal;text-align:start;letter-spacing:0px;word-spacing:0px;writing-mode:lr-tb;text-anchor:start;fill:#000000;fill-opacity:1;stroke:none;stroke-width:0.264566"
         x="82.566185"
         y="30.192368"
         id="text4910"
         transform="scale(0.9999348,1.0000652)"><tspan
           sodipodi:role="line"
           id="tspan4908"
           x="82.566185"
           y="30.192368"
           style="font-style:normal;font-variant:normal;font-weight:bold;font-stretch:normal;font-size:3.88031006px;font-family:'MicrogrammaEF Extend';-inkscape-font-specification:'MicrogrammaEF Extend, Bold';font-variant-ligatures:normal;font-variant-caps:normal;font-variant-numeric:normal;font-feature-settings:normal;text-align:start;writing-mode:lr-tb;text-anchor:start;stroke-width:0.264566">E</tspan></text>
      <text
         xml:space="preserve"
         style="font-style:normal;font-variant:normal;font-weight:bold;font-stretch:normal;font-size:6.3499999px;line-height:1.25;font-family:'MicrogrammaEF Extend';-inkscape-font-specification:'MicrogrammaEF Extend, Bold';font-variant-ligatures:normal;font-variant-caps:normal;font-variant-numeric:normal;font-feature-settings:normal;text-align:start;letter-spacing:0px;word-spacing:0px;writing-mode:lr-tb;text-anchor:start;fill:#ffffff;fill-opacity:1;stroke:none;stroke-width:0.26458299"
         x="38.829079"
         y="28.9774"
         id="text4966"><tspan
           sodipodi:role="line"
           id="tspan4968"
           x="38.829079"
           y="28.9774">Ʃ</tspan></text>
      <text
         xml:space="preserve"
         style="font-style:normal;font-variant:normal;font-weight:bold;font-stretch:normal;font-size:2.11666989px;line-height:1.25;font-family:'MicrogrammaEF Extend';-inkscape-font-specification:'MicrogrammaEF Extend, Bold';font-variant-ligatures:normal;font-variant-caps:normal;font-variant-numeric:normal;text-align:start;letter-spacing:0px;word-spacing:0px;writing-mode:lr-tb;text-anchor:start;fill:#ffffff;fill-opacity:1;stroke:none;stroke-width:0.26458299"
         x="42.854137"
         y="27.768641"
         id="text4972-9"><tspan
           sodipodi:role="line"
           id="tspan1343"
           x="42.854137"
           y="27.768641">X</tspan></text>
      <text
         xml:space="preserve"
         style="font-style:normal;font-variant:normal;font-weight:bold;font-stretch:normal;font-size:2.11666989px;line-height:1.25;font-family:'MicrogrammaEF Extend';-inkscape-font-specification:'MicrogrammaEF Extend, Bold';font-variant-ligatures:normal;font-variant-caps:normal;font-variant-numeric:normal;fill:#ffffff;stroke-width:0.26458299"
         x="38.818768"
         y="32.133102"
         id="text48506"><tspan
           sodipodi:role="line"
           id="tspan48504"
           style="font-style:normal;font-variant:normal;font-weight:bold;font-stretch:normal;font-size:2.11666989px;font-family:'MicrogrammaEF Extend';-inkscape-font-specification:'MicrogrammaEF Extend, Bold';font-variant-ligatures:normal;font-variant-caps:normal;font-variant-numeric:normal;fill:#ffffff;stroke-width:0.26458299"
           x="38.818768"
           y="32.133102">SYS</tspan></text>
      <path
         id="rect6601"
         transform="scale(0.26458333)"
         d="M 169.32227 286.86523 C 166.18148 286.86523 163.6543 289.39437 163.6543 292.53516 L 163.6543 308.78711 C 163.6543 311.9279 166.18148 314.45703 169.32227 314.45703 L 169.70117 314.45703 L 169.70117 302.74023 L 197.29102 302.74023 L 197.29102 314.45703 L 197.66992 314.45703 C 200.81071 314.45703 203.33789 311.9279 203.33789 308.78711 L 203.33789 292.53516 C 203.33789 289.39437 200.81071 286.86523 197.66992 286.86523 L 169.32227 286.86523 z "
         style="opacity:1;fill:#e9ddaf;fill-opacity:1;stroke:#808080;stroke-width:0;stroke-miterlimit:4;stroke-dasharray:none;stroke-opacity:1" />
      <text
         xml:space="preserve"
         style="font-style:normal;font-variant:normal;font-weight:bold;font-stretch:normal;font-size:2.11666989px;line-height:1.25;font-family:'MicrogrammaEF Extend';-inkscape-font-specification:'MicrogrammaEF Extend, Bold';font-variant-ligatures:normal;font-variant-caps:normal;font-variant-numeric:normal;fill:#000000;fill-opacity:1;stroke-width:0.26458299"
         x="45.397797"
         y="78.764008"
         id="text48506-7"><tspan
           sodipodi:role="line"
           id="tspan8991"
           x="45.397797"
           y="78.764008">GEO</tspan></text>
      <path
         id="rect6601-3"
         transform="scale(0.26458333)"
         d="M 217.89062 286.86523 C 214.74984 286.86523 212.2207 289.39437 212.2207 292.53516 L 212.2207 308.78711 C 212.2207 311.9279 214.74984 314.45703 217.89062 314.45703 L 218.26758 314.45703 L 218.26758 302.74023 L 245.85742 302.74023 L 245.85742 314.45703 L 246.23633 314.45703 C 249.37712 314.45703 251.90625 311.9279 251.90625 308.78711 L 251.90625 292.53516 C 251.90625 289.39437 249.37712 286.86523 246.23633 286.86523 L 217.89062 286.86523 z "
         style="display:inline;opacity:1;fill:#e9ddaf;fill-opacity:1;stroke:#808080;stroke-width:0;stroke-miterlimit:4;stroke-dasharray:none;stroke-opacity:1" />
      <text
         xml:space="preserve"
         style="font-style:normal;font-variant:normal;font-weight:bold;font-stretch:normal;font-size:2.11666989px;line-height:1.25;font-family:'MicrogrammaEF Extend';-inkscape-font-specification:'MicrogrammaEF Extend, Bold';font-variant-ligatures:normal;font-variant-caps:normal;font-variant-numeric:normal;fill:#000000;fill-opacity:1;stroke-width:0.26458299"
         x="58.109501"
         y="78.741821"
         id="text48506-4"><tspan
           sodipodi:role="line"
           id="tspan8917"
           x="58.109501"
           y="78.741821">MET</tspan></text>
      <text
         xml:space="preserve"
         style="font-style:normal;font-variant:normal;font-weight:bold;font-stretch:normal;font-size:2.11667991px;line-height:1.25;font-family:'MicrogrammaEF Extend';-inkscape-font-specification:'MicrogrammaEF Extend, Bold';font-variant-ligatures:normal;font-variant-caps:normal;font-variant-numeric:normal;fill:#ffffff;stroke-width:0.264577"
         x="57.191185"
         y="33.027325"
         id="text48506-1"
         transform="scale(0.9999752,1.0000248)"><tspan
           sodipodi:role="line"
           id="tspan73940"
           x="57.191185"
           y="33.027325"
           style="stroke-width:0.264577">SENSE--</tspan></text>
      <text
         xml:space="preserve"
         style="font-style:normal;font-variant:normal;font-weight:bold;font-stretch:normal;font-size:2.11666989px;line-height:1.25;font-family:'MicrogrammaEF Extend';-inkscape-font-specification:'MicrogrammaEF Extend, Bold';font-variant-ligatures:normal;font-variant-caps:normal;font-variant-numeric:normal;fill:#ffffff;stroke-width:0.264575"
         x="56.318764"
         y="26.161045"
         id="text48506-1-6"
         transform="scale(0.9999687,1.0000313)"><tspan
           sodipodi:role="line"
           id="tspan73920"
           x="56.318764"
           y="26.161045">--DATA</tspan></text>
      <text
         xml:space="preserve"
         style="font-style:normal;font-variant:normal;font-weight:bold;font-stretch:normal;font-size:1.76391006px;line-height:1.25;font-family:'MicrogrammaEF Extend';-inkscape-font-specification:'MicrogrammaEF Extend, Bold';font-variant-ligatures:normal;font-variant-caps:normal;font-variant-numeric:normal;fill:#ffffff;fill-opacity:1;stroke-width:0.26458699"
         x="26.164448"
         y="45.877113"
         id="text8642-3-2-8"
         transform="scale(1.0000131,0.9999869)"><tspan
           sodipodi:role="line"
           id="tspan5813"
           x="26.164448"
           y="45.877113"
           style="stroke-width:0.26458699">ALPHA</tspan></text>
      <text
         xml:space="preserve"
         style="font-style:normal;font-variant:normal;font-weight:bold;font-stretch:normal;font-size:1.76389003px;line-height:1.25;font-family:'MicrogrammaEF Extend';-inkscape-font-specification:'MicrogrammaEF Extend, Bold';font-variant-ligatures:normal;font-variant-caps:normal;font-variant-numeric:normal;fill:#ffffff;fill-opacity:1;stroke-width:0.264584"
         x="27.08625"
         y="53.876514"
         id="text8642-3-2-8-9"><tspan
           sodipodi:role="line"
           id="tspan5894"
           x="27.08625"
           y="53.876514">BETA</tspan></text>
      <text
         xml:space="preserve"
         style="font-style:normal;font-variant:normal;font-weight:bold;font-stretch:normal;font-size:1.76389003px;line-height:1.25;font-family:'MicrogrammaEF Extend';-inkscape-font-specification:'MicrogrammaEF Extend, Bold';font-variant-ligatures:normal;font-variant-caps:normal;font-variant-numeric:normal;fill:#ffffff;fill-opacity:1;stroke-width:0.264584"
         x="25.331497"
         y="61.894169"
         id="text8642-3-2-8-6"><tspan
           sodipodi:role="line"
           id="tspan5914"
           x="25.331497"
           y="61.894169">GAMMA</tspan></text>
      <text
         xml:space="preserve"
         style="font-style:normal;font-variant:normal;font-weight:bold;font-stretch:normal;font-size:1.76389003px;line-height:1.25;font-family:'MicrogrammaEF Extend';-inkscape-font-specification:'MicrogrammaEF Extend, Bold';font-variant-ligatures:normal;font-variant-caps:normal;font-variant-numeric:normal;fill:#ffffff;fill-opacity:1;stroke-width:0.264584"
         x="26.421249"
         y="69.876518"
         id="text8642-3-2-8-4"><tspan
           sodipodi:role="line"
           id="tspan5934"
           x="26.421249"
           y="69.876518">DELTA</tspan></text>
      <text
         xml:space="preserve"
         style="font-style:normal;font-variant:normal;font-weight:bold;font-stretch:normal;font-size:1.76391995px;line-height:1.25;font-family:'MicrogrammaEF Extend';-inkscape-font-specification:'MicrogrammaEF Extend, Bold';font-variant-ligatures:normal;font-variant-caps:normal;font-variant-numeric:normal;fill:#ffffff;fill-opacity:1;stroke-width:0.26458901"
         x="25.19072"
         y="72.30101"
         id="text8642-3-2-8-4-0"
         transform="scale(1.0000208,0.99997921)"><tspan
           sodipodi:role="line"
           id="tspan7585"
           x="25.19072"
           y="72.30101"
           style="stroke-width:0.26458901">LIBRARY</tspan></text>
      <text
         xml:space="preserve"
         style="font-style:normal;font-variant:normal;font-weight:bold;font-stretch:normal;font-size:1.76389003px;line-height:1.25;font-family:'MicrogrammaEF Extend';-inkscape-font-specification:'MicrogrammaEF Extend, Bold';font-variant-ligatures:normal;font-variant-caps:normal;font-variant-numeric:normal;fill:#000000;fill-opacity:1;stroke-width:0.264584"
         x="23.858292"
         y="74.976509"
         id="text8642-3-2-8-4-2"><tspan
           sodipodi:role="line"
           id="tspan5981"
           x="23.858292"
           y="74.976509">A</tspan></text>
      <text
         xml:space="preserve"
         style="font-style:normal;font-variant:normal;font-weight:bold;font-stretch:normal;font-size:2.11666989px;line-height:1.25;font-family:'MicrogrammaEF Extend';-inkscape-font-specification:'MicrogrammaEF Extend, Bold';font-variant-ligatures:normal;font-variant-caps:normal;font-variant-numeric:normal;fill:#000000;fill-opacity:1;stroke-width:0.264584"
         x="35.528252"
         y="74.976509"
         id="text8642-3-2-8-4-2-9"><tspan
           sodipodi:role="line"
           id="tspan12542"
           x="35.528252"
           y="74.976509">ɑ</tspan></text>
      <text
         xml:space="preserve"
         style="font-style:normal;font-variant:normal;font-weight:bold;font-stretch:normal;font-size:2.11666989px;line-height:1.25;font-family:'MicrogrammaEF Extend';-inkscape-font-specification:'MicrogrammaEF Extend, Bold';font-variant-ligatures:normal;font-variant-caps:normal;font-variant-numeric:normal;fill:#000000;fill-opacity:1;stroke-width:0.26456499"
         x="35.425102"
         y="82.693626"
         id="text8642-3-2-8-4-2-3"
         transform="scale(0.999929,1.000071)"><tspan
           sodipodi:role="line"
           id="tspan12580"
           x="35.425102"
           y="82.693626">ω</tspan></text>
      <text
         xml:space="preserve"
         style="font-style:normal;font-variant:normal;font-weight:bold;font-stretch:normal;font-size:1.76375997px;line-height:1.25;font-family:'MicrogrammaEF Extend';-inkscape-font-specification:'MicrogrammaEF Extend, Bold';font-variant-ligatures:normal;font-variant-caps:normal;font-variant-numeric:normal;fill:#000000;fill-opacity:1;stroke-width:0.26456499"
         x="24.044817"
         y="82.593643"
         id="text8642-3-2-8-4-2-3-2"
         transform="scale(0.999929,1.000071)"><tspan
           sodipodi:role="line"
           id="tspan6028-8"
           x="24.044817"
           y="82.593643"
           style="stroke-width:0.26456499">Z</tspan></text>
      <path
         id="rect6601-3-7"
         transform="scale(0.26458333)"
         d="M 266.45703 286.86523 C 263.31624 286.86523 260.78711 289.39437 260.78711 292.53516 L 260.78711 308.78711 C 260.78711 311.9279 263.31624 314.45703 266.45703 314.45703 L 266.83398 314.45703 L 266.83398 302.74023 L 294.42578 302.74023 L 294.42578 314.45703 L 294.80273 314.45703 C 297.94352 314.45703 300.47266 311.9279 300.47266 308.78711 L 300.47266 292.53516 C 300.47266 289.39437 297.94352 286.86523 294.80273 286.86523 L 266.45703 286.86523 z "
         style="display:inline;opacity:1;fill:#e9ddaf;fill-opacity:1;stroke:#808080;stroke-width:0;stroke-miterlimit:4;stroke-dasharray:none;stroke-opacity:1" />
      <text
         xml:space="preserve"
         style="font-style:normal;font-variant:normal;font-weight:bold;font-stretch:normal;font-size:2.15997005px;line-height:1.25;font-family:'MicrogrammaEF Extend';-inkscape-font-specification:'MicrogrammaEF Extend, Bold';font-variant-ligatures:normal;font-variant-caps:normal;font-variant-numeric:normal;fill:#000000;fill-opacity:1;stroke-width:0.26999599"
         x="70.09761"
         y="80.37532"
         id="text48506-3"
         transform="scale(1.0204574,0.97995271)"><tspan
           sodipodi:role="line"
           id="tspan8789"
           x="70.09761"
           y="80.37532"
           style="stroke-width:0.26999599">BIO</tspan></text>
      <path
         sodipodi:type="star"
         style="fill:#000000;fill-opacity:1"
         id="path11779"
         inkscape:flatsided="false"
         sodipodi:sides="3"
         sodipodi:cx="41.416252"
         sodipodi:cy="249.25514"
         sodipodi:r1="5.5443478"
         sodipodi:r2="11.088696"
         sodipodi:arg1="0.52479577"
         sodipodi:arg2="1.5719933"
         inkscape:rounded="0"
         inkscape:randomized="0"
         transform="matrix(0.0780999,0,0,0.09011972,33.114877,57.537881)"
         inkscape:transform-center-x="0.00051840046"
         inkscape:transform-center-y="-0.23104641"
         d="m 46.214476,252.03306 -4.811497,8.31077 -4.791588,-8.32226 -4.791588,-8.32227 9.603086,0.0115 9.603085,0.0115 z" />
      <path
         sodipodi:type="star"
         style="fill:#000000;fill-opacity:1"
         id="path11779-3"
         inkscape:flatsided="false"
         sodipodi:sides="3"
         sodipodi:cx="41.416252"
         sodipodi:cy="249.25514"
         sodipodi:r1="5.5443478"
         sodipodi:r2="11.088696"
         sodipodi:arg1="0.52479577"
         sodipodi:arg2="1.5719933"
         inkscape:rounded="0"
         inkscape:randomized="0"
         transform="matrix(0.0780999,0,0,0.09011972,21.514877,57.537881)"
         inkscape:transform-center-x="0.00051840046"
         inkscape:transform-center-y="-0.23104641"
         d="m 46.214476,252.03306 -4.811497,8.31077 -4.791588,-8.32226 -4.791588,-8.32227 9.603086,0.0115 9.603085,0.0115 z" />
      <path
         sodipodi:type="star"
         style="fill:#000000;fill-opacity:1"
         id="path11779-2"
         inkscape:flatsided="false"
         sodipodi:sides="3"
         sodipodi:cx="41.416252"
         sodipodi:cy="249.25514"
         sodipodi:r1="5.5443478"
         sodipodi:r2="11.088696"
         sodipodi:arg1="0.52479577"
         sodipodi:arg2="1.5719933"
         inkscape:rounded="0"
         inkscape:randomized="0"
         transform="matrix(0.0780999,0,0,-0.09011972,21.514877,98.962107)"
         inkscape:transform-center-x="0.00051840554"
         inkscape:transform-center-y="0.2310463"
         d="m 46.214476,252.03306 -4.811497,8.31077 -4.791588,-8.32226 -4.791588,-8.32227 9.603086,0.0115 9.603085,0.0115 z" />
      <path
         inkscape:connector-curvature="0"
         id="path6208"
         d="m 24.157887,72.900002 c -0.863034,0 -1.557888,0.695032 -1.557888,1.558273 v 7.583468 c 0,0.863228 0.694854,1.55826 1.557888,1.55826 h 2.042112 V 72.900002 Z"
         style="fill:#e9ddaf;fill-opacity:1;stroke-width:0.32750899;image-rendering:optimizeQuality" />
      <path
         inkscape:connector-curvature="0"
         id="path4786"
         d="m 34.499999,72.900002 v 10.700001 h 2.042106 c 0.863031,0 1.557894,-0.695032 1.557894,-1.55826 v -7.583468 c 0,-0.863241 -0.694863,-1.558273 -1.557894,-1.558273 z"
         style="fill:#e9ddaf;fill-opacity:1;stroke-width:0.32750899;image-rendering:optimizeQuality" />
      <g
         aria-label="A"
         style="font-style:normal;font-variant:normal;font-weight:bold;font-stretch:normal;font-size:1.76389003px;line-height:1.25;font-family:'MicrogrammaEF Extend';-inkscape-font-specification:'MicrogrammaEF Extend, Bold';font-variant-ligatures:normal;font-variant-caps:normal;font-variant-numeric:normal;fill:#000000;fill-opacity:1;stroke-width:0.26458552"
         id="text4846"
         transform="matrix(0.99998857,0,0,1,19.067016,20.715786)">
        <path
           style="stroke-width:0.26458552"
           d="M 6.2037494,54.31052 5.5899157,53.134006 H 5.0325265 L 4.4098733,54.31052 H 4.8190958 L 4.9196375,54.111201 H 5.697513 L 5.7980547,54.31052 Z M 5.5722768,53.853673 H 5.0466376 l 0.2257779,-0.444501 h 0.072319 z"
           id="path5005"
           inkscape:connector-curvature="0" />
      </g>
      <g
         aria-label="Z"
         transform="matrix(0.99991757,0,0,1.000071,19.067016,20.715786)"
         style="font-style:normal;font-variant:normal;font-weight:bold;font-stretch:normal;font-size:1.76375997px;line-height:1.25;font-family:'MicrogrammaEF Extend';-inkscape-font-specification:'MicrogrammaEF Extend, Bold';font-variant-ligatures:normal;font-variant-caps:normal;font-variant-numeric:normal;fill:#000000;fill-opacity:1;stroke-width:0.26456651"
         id="text4850">
        <path
           d="M 6.1383043,61.929115 V 61.634567 L 5.251133,61.646917 6.1118479,61.022546 V 60.75269 h -1.411008 v 0.294548 l 0.8307309,-0.01235 -0.8483685,0.61908 v 0.275146 z"
           style="stroke-width:0.26456651"
           id="path5008"
           inkscape:connector-curvature="0" />
      </g>
      <path
         style="fill:#000000;fill-opacity:1;stroke-width:0.08389482"
         inkscape:transform-center-x="0.00051840046"
         inkscape:transform-center-y="-0.23104641"
         d="m 36.724223,80.251103 -0.375777,0.748964 -0.374223,-0.750001 -0.374223,-0.75 0.75,10e-4 0.75,0.001 z"
         id="path4858"
         inkscape:connector-curvature="0" />
      <path
         style="fill:#000000;fill-opacity:1;stroke-width:0.08389483"
         inkscape:transform-center-x="0.00051839644"
         inkscape:transform-center-y="-0.23104641"
         d="m 24.748052,80.30083 -0.375774,0.748964 -0.374218,-0.750001 -0.374218,-0.75 0.749991,0.001 0.749991,0.001 z"
         id="path4860"
         inkscape:connector-curvature="0" />
      <path
         style="fill:#000000;fill-opacity:1;stroke-width:0.08389483"
         inkscape:transform-center-x="0.00051840152"
         inkscape:transform-center-y="0.2310463"
         d="m 24.748052,76.298761 -0.375774,-0.748964 -0.374218,0.750001 -0.374218,0.75 0.749991,-10e-4 0.749991,-0.001 z"
         id="path4862"
         inkscape:connector-curvature="0" />
      <path
         style="fill:#000000;fill-opacity:1;stroke-width:0.08389482"
         inkscape:transform-center-x="0.00051840554"
         inkscape:transform-center-y="0.2310463"
         d="m 36.724223,76.249034 -0.375777,-0.748964 -0.374223,0.750001 -0.374223,0.75 0.75,-0.001 0.75,-0.001 z"
         id="path4864"
         inkscape:connector-curvature="0" />
      <g
         transform="matrix(1.0000569,0,0,1.0000876,9.7444265e-5,0.99014681)"
         aria-label="ɑ"
         id="g4874"
         style="font-weight:bold;font-size:2.11666989px;line-height:1.25;font-family:'MicrogrammaEF Extend';-inkscape-font-specification:'MicrogrammaEF Extend, Bold';stroke-width:0.264584">
        <path
           inkscape:connector-curvature="0"
           d="m 36.692007,73.411176 q 0.04134,0.166398 0.08578,0.238745 0.04547,0.07235 0.104386,0.07235 0.04754,0 0.08475,-0.0155 -0.0021,0.05788 -0.0052,0.257349 -0.07131,0.02791 -0.161231,0.02791 -0.23151,0 -0.294556,-0.263551 h -0.0072 q -0.141594,0.275953 -0.419614,0.275953 -0.214974,0 -0.341065,-0.157097 Q 35.613,73.690239 35.613,73.437024 q 0,-0.273886 0.144694,-0.452686 0.145728,-0.178801 0.389641,-0.178801 0.27802,0 0.378272,0.244947 h 0.0052 l 0.06615,-0.217042 h 0.336931 z m -0.265618,-0.02067 q -0.06718,-0.33073 -0.239779,-0.33073 -0.112654,0 -0.176733,0.104387 -0.06305,0.103353 -0.06305,0.253215 0,0.143661 0.05271,0.234611 0.05271,0.09095 0.148829,0.09095 0.168465,0 0.261483,-0.300757 z"
           id="path4872" />
      </g>
      <g
         aria-label="ω"
         transform="matrix(0.99992902,0,0,1.000071,-0.01091156,1.0076838)"
         id="g4878"
         style="font-weight:bold;font-size:2.11666989px;line-height:1.25;font-family:'MicrogrammaEF Extend';-inkscape-font-specification:'MicrogrammaEF Extend, Bold';stroke-width:0.26456499">
        <path
           inkscape:connector-curvature="0"
           d="m 36.372849,81.522137 h -0.0041 q -0.10852,0.198437 -0.350366,0.198437 -0.224276,0 -0.356568,-0.151928 -0.131259,-0.151929 -0.131259,-0.411345 0,-0.283188 0.144695,-0.606683 h 0.340031 q -0.169499,0.333831 -0.169499,0.610817 0,0.291455 0.187069,0.291455 0.182935,0 0.182935,-0.283187 v -0.31316 h 0.314193 v 0.31316 q 0,0.283187 0.180868,0.283187 0.187069,0 0.187069,-0.291455 0,-0.276986 -0.169499,-0.610817 h 0.340031 q 0.145728,0.324529 0.145728,0.607716 0,0.252181 -0.130225,0.407211 -0.129191,0.155029 -0.360702,0.155029 -0.243913,0 -0.350367,-0.198437 z"
           id="path4876" />
      </g>
      <path
         inkscape:connector-curvature="0"
         id="path4880"
         style="stroke-width:0.13509287"
         d="m 36.100122,76.84706 h 0.5 v 2.750001 h -0.5 z" />
      <path
         inkscape:connector-curvature="0"
         id="path4882"
         style="stroke-width:0.13509287"
         d="m 24.123958,76.896786 h 0.499994 v 2.750002 h -0.499994 z" />
    </g>
  </g>
</svg>
