<?xml version="1.0" encoding="UTF-8" standalone="no"?>
<!-- Created with Inkscape (http://www.inkscape.org/) -->

<svg
   xmlns:dc="http://purl.org/dc/elements/1.1/"
   xmlns:cc="http://creativecommons.org/ns#"
   xmlns:rdf="http://www.w3.org/1999/02/22-rdf-syntax-ns#"
   xmlns:svg="http://www.w3.org/2000/svg"
   xmlns="http://www.w3.org/2000/svg"
   xmlns:sodipodi="http://sodipodi.sourceforge.net/DTD/sodipodi-0.dtd"
   xmlns:inkscape="http://www.inkscape.org/namespaces/inkscape"
   width="74mm"
   height="105mm"
   viewBox="0 0 74 105"
   version="1.1"
   id="svg5"
   inkscape:version="0.92.1 r15371"
   sodipodi:docname="Body.svg">
  <metadata
     id="metadata76">
    <rdf:RDF>
      <cc:Work
         rdf:about="">
        <dc:format>image/svg+xml</dc:format>
        <dc:type
           rdf:resource="http://purl.org/dc/dcmitype/StillImage" />
        <dc:title></dc:title>
      </cc:Work>
    </rdf:RDF>
  </metadata>
  <sodipodi:namedview
     id="namedview7"
     pagecolor="#ffffff"
     bordercolor="#111111"
     borderopacity="1"
     inkscape:pageshadow="0"
     inkscape:pageopacity="0"
     inkscape:pagecheckerboard="1"
     inkscape:document-units="mm"
     showgrid="false"
     inkscape:zoom="3.7946874"
     inkscape:cx="155.89275"
     inkscape:cy="254.03937"
     inkscape:window-width="1680"
     inkscape:window-height="987"
     inkscape:window-x="-8"
     inkscape:window-y="-8"
     inkscape:window-maximized="1"
     inkscape:current-layer="layer1"
     units="mm" />
  <defs
     id="defs2" />
  <g
     inkscape:label="Layer 1"
     inkscape:groupmode="layer"
     id="layer1">
    <path
       style="fill:#e9ddaf;fill-opacity:1;stroke-width:0.257024"
       id="rect984-1"
       width="9.3000002"
       height="10.3"
       x="27.373875"
       y="3.0840173"
       ry="1.5"
       sodipodi:type="rect"
       d="m 28.873875,3.0840173 h 6.3 c 0.831,0 1.5,0.669 1.5,1.5 v 7.2999997 c 0,0.831 -0.669,1.5 -1.5,1.5 h -6.3 c -0.831,0 -1.5,-0.669 -1.5,-1.5 V 4.5840173 c 0,-0.831 0.669,-1.5 1.5,-1.5 z" />
    <path
       style="fill:#e9ddaf;fill-opacity:1;stroke-width:0.257025"
       id="rect984-1-5"
       width="9.3000002"
       height="10.3"
       x="60.25687"
       y="3.0840173"
       ry="1.5"
       sodipodi:type="rect"
       d="m 61.75687,3.0840173 h 6.3 c 0.831,0 1.5,0.669 1.5,1.5 v 7.2999997 c 0,0.831 -0.669,1.5 -1.5,1.5 h -6.3 c -0.831,0 -1.5,-0.669 -1.5,-1.5 V 4.5840173 c 0,-0.831 0.669,-1.5 1.5,-1.5 z" />
    <path
       style="fill:#e9ddaf;fill-opacity:1;stroke-width:0.257025"
       id="rect984-1-5-7"
       width="9.3000002"
       height="10.3"
       x="49.456882"
       y="3.0840173"
       ry="1.5"
       sodipodi:type="rect"
       d="m 50.956882,3.0840173 h 6.300001 c 0.831,0 1.5,0.669 1.5,1.5 v 7.2999997 c 0,0.831 -0.669,1.5 -1.5,1.5 h -6.300001 c -0.831,0 -1.5,-0.669 -1.5,-1.5 V 4.5840173 c 0,-0.831 0.669,-1.5 1.5,-1.5 z" />
    <path
       style="fill:#000000;fill-opacity:1;stroke-width:0.128806"
       id="rect29971-8-7-2-6"
       width="0.5"
       height="2.5"
       x="5.0568733"
       y="56.334019"
       sodipodi:type="rect"
       d="m 5.0568733,56.334019 h 0.5 v 2.5 h -0.5 z" />
    <path
       style="fill:#000000;fill-opacity:1;stroke-width:0.128806"
       id="rect29971-8-7-2-6-8"
       width="0.5"
       height="2.5"
       x="16.656879"
       y="56.334019"
       sodipodi:type="rect"
       d="m 16.656879,56.334019 h 0.5 v 2.5 h -0.5 z" />
    <path
       id="rect10-6"
       style="fill:#808080;stroke-width:0.19871099"
       d="m 4.5698748,0.43401333 c -2.22326,0 -4.01319002,1.78992997 -4.01319002,4.01319997 v 7.2734497 c 0,2.22327 1.78993002,4.0132 4.01319002,4.0132 H 67.94379 c 2.22327,0 4.01319,-1.78993 4.01319,-4.0132 V 4.4472133 c 0,-2.22327 -1.78992,-4.01319997 -4.01319,-4.01319997 z m 2.48719,8.20001997 H 15.156825 V 12.134073 H 7.0570648 Z"
       inkscape:connector-curvature="0" />
    <path
       id="rect10-6-6"
       style="fill:#808080;stroke-width:0.139211"
       d="m 2.9570548,8.4340433 c -1.3296,0 -2.40037002,1.07026 -2.40037002,2.3998597 v 3.20032 c 0,1.3296 1.07077002,2.39985 2.40037002,2.39985 H 69.55713 c 1.3296,0 2.39985,-1.07025 2.39985,-2.39985 v -3.20032 c 0,-1.3295997 -1.07025,-2.3998597 -2.39985,-2.3998597 z m 4.10001,0.19999 H 15.156825 V 12.134073 H 7.0570648 Z"
       inkscape:connector-curvature="0" />
    <path
       id="rect10-6-8"
       style="fill:#808080;stroke-width:0.19203"
       d="m 3.3027748,11.033883 c -1.5212,0 -2.74609002,1.22489 -2.74609002,2.74609 v 46.90825 c 0,1.5212 1.22489002,2.74556 2.74609002,2.74556 H 18.610885 c 1.5212,0 2.74608,-1.22436 2.74608,-2.74556 v -6.2544 h 1.79989 v -0.10232 c -0.97254,-0.05 -1.74728,-0.82476 -1.7973,-1.79731 h -0.003 v -34.39997 h 0.0103 c 0.0959,-0.92525 0.85052,-1.64927 1.78955,-1.69757 v -0.20257 h -1.79989 v -2.45411 c 0,-1.5212 -1.22488,-2.74609 -2.74609,-2.74609 h -3.45405 v 1.10019 H 7.0566648 v -1.10019 z m 3.75429,8.59999 h 8.0997602 v 3.50005 H 7.0570648 Z m 0,8.00003 h 8.0997602 v 3.50005 H 7.0570648 Z m 0,8.00003 h 8.0997602 v 3.50005 H 7.0570648 Z m 0,8.00003 h 8.0997602 v 3.50004 H 7.0570648 Z m 0,8.74985 h 8.0997602 v 10.4004 H 7.0570648 Z"
       inkscape:connector-curvature="0" />
    <path
       id="rect10-6-8-7"
       style="fill:#808080;stroke-width:0.14847299"
       d="m 2.9570548,54.334083 c -1.3296,0 -2.40037002,1.07026 -2.40037002,2.39986 v 4.29999 c 0,1.3296 1.07077002,2.39985 2.40037002,2.39985 H 36.157095 c 0.80633,0 1.51712,-0.39357 1.95182,-0.99994 h -0.0822 v -2.99981 h 0.5302 v -2.70009 c 0,-1.3296 -1.07026,-2.39986 -2.39986,-2.39986 h -21.00027 v 8.45013 H 7.0570248 v -8.45013 z m 22.1996802,5.09995 h 7.00009 v 2.99981 h -7.00009 z"
       inkscape:connector-curvature="0" />
    <path
       id="rect10-6-8-7-2"
       style="fill:#808080;stroke-width:0.14847299"
       d="m 34.356695,54.334083 c -0.9972,0 -1.79989,0.80269 -1.79989,1.79989 v 5.49993 c 0,0.99719 0.80269,1.79988 1.79989,1.79988 H 70.15709 c 0.9972,0 1.79989,-0.80269 1.79989,-1.79988 v -5.49993 c 0,-0.9972 -0.80269,-1.79989 -1.79989,-1.79989 z m 30.200225,1.19993 h 5.00021 v 1.30018 h -5.00021 z m 0,2.87993 h 5.00021 v 1.30018 h -5.00021 z m -26.530165,1.02009 h 7.00009 v 2.99981 h -7.00009 z m 12.87001,0 h 7.000095 v 2.99981 h -7.000095 z m 13.660155,1.85983 h 5.00021 v 1.30018 h -5.00021 z"
       inkscape:connector-curvature="0" />
    <path
       id="rect984"
       style="fill:#e9ddaf;fill-opacity:1;stroke-width:0.295587"
       d="m 6.4571048,3.0839833 c -0.831,0 -1.50017,0.66917 -1.50017,1.50017 v 7.2998097 c 0,0.831 0.66917,1.50017 1.50017,1.50017 h 9.2996902 c 0.831,0 1.50016,-0.66917 1.50016,-1.50017 V 4.5841533 c 0,-0.831 -0.66916,-1.50017 -1.50016,-1.50017 z m 0.59996,5.55005 H 15.156825 V 12.134073 H 7.0570648 Z"
       inkscape:connector-curvature="0" />
    <path
       id="rect984-0"
       style="fill:#e9ddaf;fill-opacity:1;stroke-width:0.32750899"
       d="m 5.0716548,52.383813 c -0.83907,0 -1.51463,0.67557 -1.51463,1.51464 v 7.37113 c 0,0.83906 0.67556,1.51463 1.51463,1.51463 h 1.98541 v -10.4004 z m 10.0851702,0 v 10.4004 h 1.98541 c 0.83907,0 1.51464,-0.67557 1.51464,-1.51463 v -7.37113 c 0,-0.83907 -0.67557,-1.51464 -1.51464,-1.51464 z"
       inkscape:connector-curvature="0" />
    <path
       id="rect984-1-5-7-7"
       style="fill:#e9ddaf;fill-opacity:1;stroke-width:0.22674599"
       d="m 37.311035,55.334023 c -0.57283,0 -1.03405,0.46122 -1.03405,1.03405 v 5.03173 c 0,0.57283 0.46122,1.03404 1.03405,1.03404 h 0.71572 v -2.99981 h 7.00009 v 2.99981 h 0.71623 c 0.57283,10e-6 1.03405,-0.46121 1.03405,-1.03404 v -5.03173 c 0,-0.57283 -0.46122,-1.03405 -1.03405,-1.03405 z"
       inkscape:connector-curvature="0" />
    <path
       id="rect984-1-5-7-7-7"
       style="fill:#e9ddaf;fill-opacity:1;stroke-width:0.22674599"
       d="m 24.441015,55.334023 c -0.57282,0 -1.03404,0.46122 -1.03404,1.03405 v 5.03173 c 0,0.57283 0.46122,1.03404 1.03404,1.03404 h 0.71572 v -2.99981 h 7.00009 v 2.99981 h 0.71624 c 0.57282,10e-6 1.03404,-0.46121 1.03404,-1.03404 v -5.03173 c 0,-0.57283 -0.46122,-1.03405 -1.03404,-1.03405 z"
       inkscape:connector-curvature="0" />
    <text
       xml:space="preserve"
       style="font-style:normal;font-variant:normal;font-weight:bold;font-stretch:normal;font-size:2.82222009px;line-height:1.25;font-family:'MicrogrammaEF Extend';-inkscape-font-specification:'MicrogrammaEF Extend, Bold';font-variant-ligatures:normal;font-variant-caps:normal;font-variant-numeric:normal;font-feature-settings:normal;text-align:start;letter-spacing:0px;word-spacing:0px;writing-mode:lr-tb;text-anchor:start;fill:#000000;fill-opacity:1;stroke:none;stroke-width:0.26458299"
       x="6.4727974"
       y="6.716433"
       id="text344"><tspan
         sodipodi:role="line"
         id="tspan342"
         x="6.4727974"
         y="6.716433"
         style="font-style:normal;font-variant:normal;font-weight:bold;font-stretch:normal;font-size:2.82222009px;font-family:'MicrogrammaEF Extend';-inkscape-font-specification:'MicrogrammaEF Extend, Bold';font-variant-ligatures:normal;font-variant-caps:normal;font-variant-numeric:normal;font-feature-settings:normal;text-align:start;writing-mode:lr-tb;text-anchor:start;stroke-width:0.26458299">PWR</tspan></text>
    <text
       xml:space="preserve"
       style="font-style:normal;font-variant:normal;font-weight:bold;font-stretch:normal;font-size:6.3499999px;line-height:1.25;font-family:'MicrogrammaEF Extend';-inkscape-font-specification:'MicrogrammaEF Extend, Bold';font-variant-ligatures:normal;font-variant-caps:normal;font-variant-numeric:normal;font-feature-settings:normal;text-align:start;letter-spacing:0px;word-spacing:0px;writing-mode:lr-tb;text-anchor:start;fill:#ffffff;fill-opacity:1;stroke:none;stroke-width:0.26458299"
       x="19.38596"
       y="8.3114195"
       id="text4966"><tspan
         sodipodi:role="line"
         id="tspan4968"
         x="19.38596"
         y="8.3114195">Ʃ</tspan></text>
    <text
       xml:space="preserve"
       style="font-style:normal;font-variant:normal;font-weight:bold;font-stretch:normal;font-size:2.11666989px;line-height:1.25;font-family:'MicrogrammaEF Extend';-inkscape-font-specification:'MicrogrammaEF Extend, Bold';font-variant-ligatures:normal;font-variant-caps:normal;font-variant-numeric:normal;text-align:start;letter-spacing:0px;word-spacing:0px;writing-mode:lr-tb;text-anchor:start;fill:#ffffff;fill-opacity:1;stroke:none;stroke-width:0.26458299"
       x="23.411015"
       y="7.1026483"
       id="text4972-9"><tspan
         sodipodi:role="line"
         id="tspan1343"
         x="23.411015"
         y="7.1026483">X</tspan></text>
    <text
       xml:space="preserve"
       style="font-style:normal;font-variant:normal;font-weight:bold;font-stretch:normal;font-size:2.11666989px;line-height:1.25;font-family:'MicrogrammaEF Extend';-inkscape-font-specification:'MicrogrammaEF Extend, Bold';font-variant-ligatures:normal;font-variant-caps:normal;font-variant-numeric:normal;fill:#ffffff;stroke-width:0.26458299"
       x="19.375645"
       y="11.46712"
       id="text48506"><tspan
         sodipodi:role="line"
         id="tspan48504"
         style="font-style:normal;font-variant:normal;font-weight:bold;font-stretch:normal;font-size:2.11666989px;font-family:'MicrogrammaEF Extend';-inkscape-font-specification:'MicrogrammaEF Extend, Bold';font-variant-ligatures:normal;font-variant-caps:normal;font-variant-numeric:normal;fill:#ffffff;stroke-width:0.26458299"
         x="19.375645"
         y="11.46712">SYS</tspan></text>
    <text
       xml:space="preserve"
       style="font-style:normal;font-variant:normal;font-weight:bold;font-stretch:normal;font-size:2.11666989px;line-height:1.25;font-family:'MicrogrammaEF Extend';-inkscape-font-specification:'MicrogrammaEF Extend, Bold';font-variant-ligatures:normal;font-variant-caps:normal;font-variant-numeric:normal;fill:#000000;fill-opacity:1;stroke-width:0.26458299"
       x="25.665638"
       y="58.098026"
       id="text48506-7"><tspan
         sodipodi:role="line"
         id="tspan8991"
         x="25.665638"
         y="58.098026">GEO</tspan></text>
    <text
       xml:space="preserve"
       style="font-style:normal;font-variant:normal;font-weight:bold;font-stretch:normal;font-size:2.11666989px;line-height:1.25;font-family:'MicrogrammaEF Extend';-inkscape-font-specification:'MicrogrammaEF Extend, Bold';font-variant-ligatures:normal;font-variant-caps:normal;font-variant-numeric:normal;fill:#000000;fill-opacity:1;stroke-width:0.26458299"
       x="38.235371"
       y="58.07584"
       id="text48506-4"><tspan
         sodipodi:role="line"
         id="tspan8917"
         x="38.235371"
         y="58.07584">MET</tspan></text>
    <text
       xml:space="preserve"
       style="font-style:normal;font-variant:normal;font-weight:bold;font-stretch:normal;font-size:2.11667991px;line-height:1.25;font-family:'MicrogrammaEF Extend';-inkscape-font-specification:'MicrogrammaEF Extend, Bold';font-variant-ligatures:normal;font-variant-caps:normal;font-variant-numeric:normal;fill:#ffffff;stroke-width:0.264577"
       x="37.747581"
       y="12.361856"
       id="text48506-1"
       transform="scale(0.9999752,1.0000248)"><tspan
         sodipodi:role="line"
         id="tspan73940"
         x="37.747581"
         y="12.361856"
         style="stroke-width:0.264577">SENSE--</tspan></text>
    <text
       xml:space="preserve"
       style="font-style:normal;font-variant:normal;font-weight:bold;font-stretch:normal;font-size:2.11666989px;line-height:1.25;font-family:'MicrogrammaEF Extend';-inkscape-font-specification:'MicrogrammaEF Extend, Bold';font-variant-ligatures:normal;font-variant-caps:normal;font-variant-numeric:normal;fill:#ffffff;stroke-width:0.264575"
       x="36.875023"
       y="5.4957051"
       id="text48506-1-6"
       transform="scale(0.9999687,1.0000313)"><tspan
         sodipodi:role="line"
         id="tspan73920"
         x="36.875023"
         y="5.4957051">--DATA</tspan></text>
    <text
       xml:space="preserve"
       style="font-style:normal;font-variant:normal;font-weight:bold;font-stretch:normal;font-size:1.76391006px;line-height:1.25;font-family:'MicrogrammaEF Extend';-inkscape-font-specification:'MicrogrammaEF Extend, Bold';font-variant-ligatures:normal;font-variant-caps:normal;font-variant-numeric:normal;fill:#ffffff;fill-opacity:1;stroke-width:0.26458699"
       x="6.7215748"
       y="25.060852"
       id="text8642-3-2-8"
       transform="scale(1.0000131,0.9999869)"><tspan
         sodipodi:role="line"
         id="tspan5813"
         x="6.7215748"
         y="25.060852"
         style="stroke-width:0.26458699">ALPHA</tspan></text>
    <text
       xml:space="preserve"
       style="font-style:normal;font-variant:normal;font-weight:bold;font-stretch:normal;font-size:1.76389003px;line-height:1.25;font-family:'MicrogrammaEF Extend';-inkscape-font-specification:'MicrogrammaEF Extend, Bold';font-variant-ligatures:normal;font-variant-caps:normal;font-variant-numeric:normal;fill:#ffffff;fill-opacity:1;stroke-width:0.264584"
       x="7.6431313"
       y="33.060535"
       id="text8642-3-2-8-9"><tspan
         sodipodi:role="line"
         id="tspan5894"
         x="7.6431313"
         y="33.060535">BETA</tspan></text>
    <text
       xml:space="preserve"
       style="font-style:normal;font-variant:normal;font-weight:bold;font-stretch:normal;font-size:1.76389003px;line-height:1.25;font-family:'MicrogrammaEF Extend';-inkscape-font-specification:'MicrogrammaEF Extend, Bold';font-variant-ligatures:normal;font-variant-caps:normal;font-variant-numeric:normal;fill:#ffffff;fill-opacity:1;stroke-width:0.264584"
       x="5.8883705"
       y="41.07819"
       id="text8642-3-2-8-6"><tspan
         sodipodi:role="line"
         id="tspan5914"
         x="5.8883705"
         y="41.07819">GAMMA</tspan></text>
    <text
       xml:space="preserve"
       style="font-style:normal;font-variant:normal;font-weight:bold;font-stretch:normal;font-size:1.76389003px;line-height:1.25;font-family:'MicrogrammaEF Extend';-inkscape-font-specification:'MicrogrammaEF Extend, Bold';font-variant-ligatures:normal;font-variant-caps:normal;font-variant-numeric:normal;fill:#ffffff;fill-opacity:1;stroke-width:0.264584"
       x="6.9781227"
       y="49.06052"
       id="text8642-3-2-8-4"><tspan
         sodipodi:role="line"
         id="tspan5934"
         x="6.9781227"
         y="49.06052">DELTA</tspan></text>
    <text
       xml:space="preserve"
       style="font-style:normal;font-variant:normal;font-weight:bold;font-stretch:normal;font-size:1.76391995px;line-height:1.25;font-family:'MicrogrammaEF Extend';-inkscape-font-specification:'MicrogrammaEF Extend, Bold';font-variant-ligatures:normal;font-variant-caps:normal;font-variant-numeric:normal;fill:#ffffff;fill-opacity:1;stroke-width:0.26458901"
       x="5.7479939"
       y="51.634617"
       id="text8642-3-2-8-4-0"
       transform="scale(1.0000208,0.99997921)"><tspan
         sodipodi:role="line"
         id="tspan7585"
         x="5.7479939"
         y="51.634617"
         style="stroke-width:0.26458901">LIBRARY</tspan></text>
    <text
       xml:space="preserve"
       style="font-style:normal;font-variant:normal;font-weight:bold;font-stretch:normal;font-size:1.76389003px;line-height:1.25;font-family:'MicrogrammaEF Extend';-inkscape-font-specification:'MicrogrammaEF Extend, Bold';font-variant-ligatures:normal;font-variant-caps:normal;font-variant-numeric:normal;fill:#000000;fill-opacity:1;stroke-width:0.264584"
       x="4.4151649"
       y="54.31052"
       id="text8642-3-2-8-4-2"><tspan
         sodipodi:role="line"
         id="tspan5981"
         x="4.4151649"
         y="54.31052">A</tspan></text>
    <text
       xml:space="preserve"
       style="font-style:normal;font-variant:normal;font-weight:bold;font-stretch:normal;font-size:1.76375997px;line-height:1.25;font-family:'MicrogrammaEF Extend';-inkscape-font-specification:'MicrogrammaEF Extend, Bold';font-variant-ligatures:normal;font-variant-caps:normal;font-variant-numeric:normal;fill:#000000;fill-opacity:1;stroke-width:0.26456499"
       x="4.6003056"
       y="61.929115"
       id="text8642-3-2-8-4-2-3-2"
       transform="scale(0.999929,1.000071)"><tspan
         sodipodi:role="line"
         id="tspan6028-8"
         x="4.6003056"
         y="61.929115"
         style="stroke-width:0.26456499">Z</tspan></text>
    <path
       id="rect984-1-5-7-7-2"
       style="fill:#e9ddaf;fill-opacity:1;stroke-width:0.22674599"
       d="m 50.181045,55.334023 c -0.57282,0 -1.03404,0.46122 -1.03404,1.03405 v 5.03173 c 0,0.57283 0.46122,1.03404 1.03404,1.03404 h 0.71572 v -2.99981 h 7.000095 v 2.99981 h 0.71624 c 0.57281,10e-6 1.03353,-0.46121 1.03353,-1.03404 v -5.03173 c 0,-0.57283 -0.46072,-1.03405 -1.03353,-1.03405 z"
       inkscape:connector-curvature="0" />
    <text
       xml:space="preserve"
       style="font-style:normal;font-variant:normal;font-weight:bold;font-stretch:normal;font-size:2.15997005px;line-height:1.25;font-family:'MicrogrammaEF Extend';-inkscape-font-specification:'MicrogrammaEF Extend, Bold';font-variant-ligatures:normal;font-variant-caps:normal;font-variant-numeric:normal;fill:#000000;fill-opacity:1;stroke-width:0.26999599"
       x="50.740475"
       y="59.286556"
       id="text48506-3"
       transform="scale(1.0204574,0.97995271)"><tspan
         sodipodi:role="line"
         id="tspan8789"
         x="50.740475"
         y="59.286556"
         style="stroke-width:0.26999599">BIO</tspan></text>
    <path
       sodipodi:type="star"
       style="fill:#000000;fill-opacity:1"
       id="path11779"
       inkscape:flatsided="false"
       sodipodi:sides="3"
       sodipodi:cx="41.416252"
       sodipodi:cy="249.25514"
       sodipodi:r1="5.5443478"
       sodipodi:r2="11.088696"
       sodipodi:arg1="0.52479577"
       sodipodi:arg2="1.5719933"
       inkscape:rounded="0"
       inkscape:randomized="0"
       transform="matrix(0.0780999,0,0,0.09011972,13.671755,36.871893)"
       inkscape:transform-center-x="0.00051840046"
       inkscape:transform-center-y="-0.23104641"
       d="m 46.214476,252.03306 -4.811497,8.31077 -4.791588,-8.32226 -4.791588,-8.32227 9.603086,0.0115 9.603085,0.0115 z" />
    <path
       sodipodi:type="star"
       style="fill:#000000;fill-opacity:1"
       id="path11779-3"
       inkscape:flatsided="false"
       sodipodi:sides="3"
       sodipodi:cx="41.416252"
       sodipodi:cy="249.25514"
       sodipodi:r1="5.5443478"
       sodipodi:r2="11.088696"
       sodipodi:arg1="0.52479577"
       sodipodi:arg2="1.5719933"
       inkscape:rounded="0"
       inkscape:randomized="0"
       transform="matrix(0.0780999,0,0,0.09011972,2.0717548,36.871893)"
       inkscape:transform-center-x="0.00051840046"
       inkscape:transform-center-y="-0.23104641"
       d="m 46.214476,252.03306 -4.811497,8.31077 -4.791588,-8.32226 -4.791588,-8.32227 9.603086,0.0115 9.603085,0.0115 z" />
    <path
       sodipodi:type="star"
       style="fill:#000000;fill-opacity:1"
       id="path11779-2"
       inkscape:flatsided="false"
       sodipodi:sides="3"
       sodipodi:cx="41.416252"
       sodipodi:cy="249.25514"
       sodipodi:r1="5.5443478"
       sodipodi:r2="11.088696"
       sodipodi:arg1="0.52479577"
       sodipodi:arg2="1.5719933"
       inkscape:rounded="0"
       inkscape:randomized="0"
       transform="matrix(0.0780999,0,0,-0.09011972,2.0717548,78.296123)"
       inkscape:transform-center-x="0.00051840554"
       inkscape:transform-center-y="0.2310463"
       d="m 46.214476,252.03306 -4.811497,8.31077 -4.791588,-8.32226 -4.791588,-8.32227 9.603086,0.0115 9.603085,0.0115 z" />
    <path
       sodipodi:type="star"
       style="fill:#000000;fill-opacity:1"
       id="path11779-2-3"
       inkscape:flatsided="false"
       sodipodi:sides="3"
       sodipodi:cx="41.416252"
       sodipodi:cy="249.25514"
       sodipodi:r1="5.5443478"
       sodipodi:r2="11.088696"
       sodipodi:arg1="0.52479577"
       sodipodi:arg2="1.5719933"
       inkscape:rounded="0"
       inkscape:randomized="0"
       transform="matrix(0.0780999,0,0,-0.09011972,13.671755,78.296123)"
       inkscape:transform-center-x="0.00051840554"
       inkscape:transform-center-y="0.2310463"
       d="m 46.214476,252.03306 -4.811497,8.31077 -4.791588,-8.32226 -4.791588,-8.32227 9.603086,0.0115 9.603085,0.0115 z" />
    <path
       inkscape:connector-curvature="0"
       id="rect984-1-5-7"
       style="fill:#e9ddaf;stroke-width:0.257025"
       d="m 50.957,3.0840001 h 6.3 c 0.831,0 1.5,0.669 1.5,1.5 V 11.884 c 0,0.831 -0.669,1.5 -1.5,1.5 h -6.3 c -0.831,0 -1.5,-0.669 -1.5,-1.5 V 4.5840001 c 0,-0.831 0.669,-1.5 1.5,-1.5 z" />
    <path
       d="m 61.757,3.0840001 h 6.3 c 0.831,0 1.5,0.669 1.5,1.5 V 11.884 c 0,0.831 -0.669,1.5 -1.5,1.5 h -6.3 c -0.831,0 -1.5,-0.669 -1.5,-1.5 V 4.5840001 c 0,-0.831 0.669,-1.5 1.5,-1.5 z"
       style="fill:#e9ddaf;stroke-width:0.257025"
       id="path391"
       inkscape:connector-curvature="0" />
    <path
       d="m 28.874,3.0840001 h 6.3 c 0.831,0 1.5,0.669 1.5,1.5 V 11.884 c 0,0.831 -0.669,1.5 -1.5,1.5 h -6.3 c -0.831,0 -1.5,-0.669 -1.5,-1.5 V 4.5840001 c 0,-0.831 0.669,-1.5 1.5,-1.5 z"
       style="fill:#e9ddaf;stroke-width:0.257025"
       id="path393"
       inkscape:connector-curvature="0" />
    <g
       transform="matrix(1.0000569,0,0,1.0000876,-19.443025,-19.675913)"
       aria-label="ɑ"
       id="text8642-3-2-8-4-2-9"
       style="font-weight:bold;font-size:2.11666989px;line-height:1.25;font-family:'MicrogrammaEF Extend';-inkscape-font-specification:'MicrogrammaEF Extend, Bold';stroke-width:0.264584">
      <path
         inkscape:connector-curvature="0"
         d="m 36.692007,73.411176 q 0.04134,0.166398 0.08578,0.238745 0.04547,0.07235 0.104386,0.07235 0.04754,0 0.08475,-0.0155 -0.0021,0.05788 -0.0052,0.257349 -0.07131,0.02791 -0.161231,0.02791 -0.23151,0 -0.294556,-0.263551 h -0.0072 q -0.141594,0.275953 -0.419614,0.275953 -0.214974,0 -0.341065,-0.157097 Q 35.613,73.690239 35.613,73.437024 q 0,-0.273886 0.144694,-0.452686 0.145728,-0.178801 0.389641,-0.178801 0.27802,0 0.378272,0.244947 h 0.0052 l 0.06615,-0.217042 h 0.336931 z m -0.265618,-0.02067 q -0.06718,-0.33073 -0.239779,-0.33073 -0.112654,0 -0.176733,0.104387 -0.06305,0.103353 -0.06305,0.253215 0,0.143661 0.05271,0.234611 0.05271,0.09095 0.148829,0.09095 0.168465,0 0.261483,-0.300757 z"
         id="path1544" />
    </g>
    <g
       aria-label="ω"
       transform="matrix(0.99992902,0,0,1.000071,-19.454034,-19.658376)"
       id="text8642-3-2-8-4-2-3"
       style="font-weight:bold;font-size:2.11666989px;line-height:1.25;font-family:'MicrogrammaEF Extend';-inkscape-font-specification:'MicrogrammaEF Extend, Bold';stroke-width:0.26456499">
      <path
         inkscape:connector-curvature="0"
         d="m 36.372849,81.522137 h -0.0041 q -0.10852,0.198437 -0.350366,0.198437 -0.224276,0 -0.356568,-0.151928 -0.131259,-0.151929 -0.131259,-0.411345 0,-0.283188 0.144695,-0.606683 h 0.340031 q -0.169499,0.333831 -0.169499,0.610817 0,0.291455 0.187069,0.291455 0.182935,0 0.182935,-0.283187 v -0.31316 h 0.314193 v 0.31316 q 0,0.283187 0.180868,0.283187 0.187069,0 0.187069,-0.291455 0,-0.276986 -0.169499,-0.610817 h 0.340031 q 0.145728,0.324529 0.145728,0.607716 0,0.252181 -0.130225,0.407211 -0.129191,0.155029 -0.360702,0.155029 -0.243913,0 -0.350367,-0.198437 z"
         id="path1547" />
    </g>
    <path
       inkscape:connector-curvature="0"
       id="rect29971-8-7-2-6-8"
       style="stroke-width:0.13509287"
       d="m 16.657,56.181 h 0.5 v 2.75 h -0.5 z" />
    <path
       inkscape:connector-curvature="0"
       id="rect29971-8-7-2-6-8-3"
       style="stroke-width:0.13509287"
       d="m 5.057,56.180999 h 0.5 V 58.931 h -0.5 z" />
  </g>
  <g
     inkscape:groupmode="layer"
     id="layer2"
     inkscape:label="Layer 2">
    <text
       xml:space="preserve"
       style="font-style:normal;font-variant:normal;font-weight:bold;font-stretch:normal;font-size:2.82246px;line-height:1.25;font-family:'MicrogrammaEF Extend';-inkscape-font-specification:'MicrogrammaEF Extend, Bold';font-variant-ligatures:normal;font-variant-caps:normal;font-variant-numeric:normal;font-variant-east-asian:normal;text-align:start;letter-spacing:0px;word-spacing:0px;writing-mode:lr-tb;text-anchor:start;fill:#000000;fill-opacity:1;stroke:none;stroke-width:0.264605"
       x="30.300274"
       y="5.9669304"
       id="text344-6"
       transform="scale(1.0000841,0.9999159)"><tspan
         sodipodi:role="line"
         id="tspan74524"
         x="30.300274"
         y="5.9669304"
         style="stroke-width:0.264605">F</tspan></text>
    <text
       xml:space="preserve"
       style="font-style:normal;font-variant:normal;font-weight:bold;font-stretch:normal;font-size:2.82246px;line-height:1.25;font-family:'MicrogrammaEF Extend';-inkscape-font-specification:'MicrogrammaEF Extend, Bold';font-variant-ligatures:normal;font-variant-caps:normal;font-variant-numeric:normal;font-variant-east-asian:normal;text-align:start;letter-spacing:0px;word-spacing:0px;writing-mode:lr-tb;text-anchor:start;fill:#000000;fill-opacity:1;stroke:none;stroke-width:0.264605"
       x="30.300308"
       y="11.635408"
       id="text344-6-3"
       transform="scale(1.0000834,0.99991661)"><tspan
         sodipodi:role="line"
         id="tspan74524-8"
         x="30.300308"
         y="11.635408"
         style="stroke-width:0.264605">F</tspan></text>
    <text
       xml:space="preserve"
       style="font-style:normal;font-variant:normal;font-weight:bold;font-stretch:normal;font-size:1.76389px;line-height:1.25;font-family:'MicrogrammaEF Extend';-inkscape-font-specification:'MicrogrammaEF Extend, Bold';font-variant-ligatures:normal;font-variant-caps:normal;font-variant-numeric:normal;font-variant-east-asian:normal;text-align:start;letter-spacing:0px;word-spacing:0px;writing-mode:lr-tb;text-anchor:start;fill:#000000;fill-opacity:1;stroke:none;stroke-width:0.264553"
       x="32.47171"
       y="12.383018"
       id="text344-6-3-5"
       transform="scale(0.99988582,1.0001142)"><tspan
         sodipodi:role="line"
         id="tspan74598"
         x="32.47171"
         y="12.383018"
         style="font-style:normal;font-variant:normal;font-weight:bold;font-stretch:normal;font-size:1.76389px;font-family:'MicrogrammaEF Extend';-inkscape-font-specification:'MicrogrammaEF Extend, Bold';font-variant-ligatures:normal;font-variant-caps:normal;font-variant-numeric:normal;font-variant-east-asian:normal;stroke-width:0.264553">2</tspan></text>
    <text
       xml:space="preserve"
       style="font-style:normal;font-variant:normal;font-weight:bold;font-stretch:normal;font-size:1.76389px;line-height:1.25;font-family:'MicrogrammaEF Extend';-inkscape-font-specification:'MicrogrammaEF Extend, Bold';font-variant-ligatures:normal;font-variant-caps:normal;font-variant-numeric:normal;font-variant-east-asian:normal;text-align:start;letter-spacing:0px;word-spacing:0px;writing-mode:lr-tb;text-anchor:start;fill:#000000;fill-opacity:1;stroke:none;stroke-width:0.264553"
       x="32.800751"
       y="6.7743764"
       id="text344-6-3-5-1"
       transform="scale(0.99988582,1.0001142)"><tspan
         sodipodi:role="line"
         id="tspan74663"
         x="32.800751"
         y="6.7743764">1</tspan></text>
    <text
       xml:space="preserve"
       style="font-style:normal;font-variant:normal;font-weight:bold;font-stretch:normal;font-size:3.88159px;line-height:1.25;font-family:'MicrogrammaEF Extend';-inkscape-font-specification:'MicrogrammaEF Extend, Bold';font-variant-ligatures:normal;font-variant-caps:normal;font-variant-numeric:normal;font-feature-settings:normal;text-align:start;letter-spacing:0px;word-spacing:0px;writing-mode:lr-tb;text-anchor:start;fill:#000000;fill-opacity:1;stroke:none;stroke-width:0.264654"
       x="53.330235"
       y="9.5308857"
       id="text4894"
       transform="scale(1.0002666,0.99973347)"><tspan
         sodipodi:role="line"
         id="tspan4892"
         x="53.330235"
         y="9.5308857"
         style="font-style:normal;font-variant:normal;font-weight:bold;font-stretch:normal;font-size:3.88159px;font-family:'MicrogrammaEF Extend';-inkscape-font-specification:'MicrogrammaEF Extend, Bold';font-variant-ligatures:normal;font-variant-caps:normal;font-variant-numeric:normal;font-feature-settings:normal;text-align:start;writing-mode:lr-tb;text-anchor:start;stroke-width:0.264654">I</tspan></text>
    <text
       xml:space="preserve"
       style="font-style:normal;font-variant:normal;font-weight:bold;font-stretch:normal;font-size:3.88031px;line-height:1.25;font-family:'MicrogrammaEF Extend';-inkscape-font-specification:'MicrogrammaEF Extend, Bold';font-variant-ligatures:normal;font-variant-caps:normal;font-variant-numeric:normal;font-feature-settings:normal;text-align:start;letter-spacing:0px;word-spacing:0px;writing-mode:lr-tb;text-anchor:start;fill:#000000;fill-opacity:1;stroke:none;stroke-width:0.264566"
       x="63.121792"
       y="9.5277367"
       id="text4910"
       transform="scale(0.99993479,1.0000652)"><tspan
         sodipodi:role="line"
         id="tspan4908"
         x="63.121792"
         y="9.5277367"
         style="font-style:normal;font-variant:normal;font-weight:bold;font-stretch:normal;font-size:3.88031px;font-family:'MicrogrammaEF Extend';-inkscape-font-specification:'MicrogrammaEF Extend, Bold';font-variant-ligatures:normal;font-variant-caps:normal;font-variant-numeric:normal;font-feature-settings:normal;text-align:start;writing-mode:lr-tb;text-anchor:start;stroke-width:0.264566">E</tspan></text>
  </g>
</svg>
